<svg width="20" height="6" viewBox="0 0 20 6" fill="none" xmlns="http://www.w3.org/2000/svg">
<path d="M7.09677 2.90323C7.09677 1.29839 8.39516 5.72205e-06 10 5.72205e-06C11.6048 5.72205e-06 12.9032 1.29839 12.9032 2.90323C12.9032 4.50807 11.6048 5.80646 10 5.80646C8.39516 5.80646 7.09677 4.50807 7.09677 2.90323ZM2.90323 5.80646C4.50806 5.80646 5.80645 4.50807 5.80645 2.90323C5.80645 1.29839 4.50806 5.72205e-06 2.90323 5.72205e-06C1.29839 5.72205e-06 0 1.29839 0 2.90323C0 4.50807 1.29839 5.80646 2.90323 5.80646ZM17.0968 5.80646C18.7016 5.80646 20 4.50807 20 2.90323C20 1.29839 18.7016 5.72205e-06 17.0968 5.72205e-06C15.4919 5.72205e-06 14.1935 1.29839 14.1935 2.90323C14.1935 4.50807 15.4919 5.80646 17.0968 5.80646Z" fill="#EEEEEE"/>
</svg>
