<svg width="30" height="28" viewBox="0 0 30 28" fill="none" xmlns="http://www.w3.org/2000/svg">
<path d="M16.0393 24.4393L15 25.4787L13.9607 24.4393L13.9282 24.4069L13.8939 24.3765C9.96867 20.9042 6.84287 18.0994 4.68381 15.4726C2.54187 12.8665 1.5 10.6092 1.5 8.25C1.5 4.42843 4.42843 1.5 8.25 1.5C10.3517 1.5 12.4853 2.50027 13.8549 4.11891L15 5.47219L16.1451 4.11891C17.5147 2.50027 19.6483 1.5 21.75 1.5C25.5716 1.5 28.5 4.42843 28.5 8.25C28.5 10.6092 27.4581 12.8665 25.3162 15.4726C23.1571 18.0994 20.0313 20.9042 16.1061 24.3765L16.0718 24.4069L16.0393 24.4393Z" stroke="#EEEEEE" stroke-width="3"/>
</svg>
