<svg width="23" height="20" viewBox="0 0 23 20" fill="none" xmlns="http://www.w3.org/2000/svg">
<path d="M22.5434 14.5995C22.9618 15.018 22.9618 15.6963 22.5434 16.1147L18.9719 19.6855C18.3018 20.3555 17.1429 19.8859 17.1429 18.9278V17.1429H14.5185C14.4451 17.1429 14.3724 17.1277 14.305 17.0985C14.2377 17.0692 14.177 17.0264 14.1269 16.9727L10.9771 13.5979L13.358 11.0468L15.7143 13.5714H17.1429V11.7866C17.1429 10.8295 18.301 10.3581 18.9719 11.0289L22.5434 14.5995ZM0.535715 6.42857H4.28572L6.64201 8.95317L9.02295 6.40214L5.87313 3.02732C5.823 2.97361 5.76237 2.93079 5.69499 2.90152C5.62762 2.87224 5.55494 2.85714 5.48148 2.85714H0.535715C0.239866 2.85714 0 3.09701 0 3.39286V5.89286C0 6.18871 0.239866 6.42857 0.535715 6.42857ZM17.1429 6.42857V8.21357C17.1429 9.17161 18.3018 9.64125 18.9719 8.97121L22.5434 5.40049C22.9618 4.98205 22.9618 4.30366 22.5434 3.88527L18.9719 0.314685C18.301 -0.356208 17.1429 0.115266 17.1429 1.07228V2.85714H14.5185C14.4451 2.85715 14.3724 2.87226 14.305 2.90154C14.2377 2.93081 14.177 2.97363 14.1269 3.02732L4.28572 13.5714H0.535715C0.239866 13.5714 0 13.8113 0 14.1071V16.6071C0 16.903 0.239866 17.1429 0.535715 17.1429H5.48148C5.62996 17.1429 5.77179 17.0812 5.87313 16.9727L15.7143 6.42857H17.1429Z" fill="#EEEEEE"/>
</svg>
