<svg width="45" height="38" viewBox="0 0 45 38" fill="none" xmlns="http://www.w3.org/2000/svg">
<path d="M16.7992 4.55078L9.84844 11.5H1.875C0.839062 11.5 0 12.3391 0 13.375V24.625C0 25.6602 0.839062 26.5 1.875 26.5H9.84844L16.7992 33.4492C17.9734 34.6234 20 33.7984 20 32.1234V5.87656C20 4.2 17.9719 3.37812 16.7992 4.55078ZM35.0273 0.560152C34.1547 -0.0125042 32.982 0.228902 32.4094 1.10312C31.8359 1.97578 32.0797 3.14843 32.9523 3.72109C38.1297 7.11875 41.2195 12.8305 41.2195 19.0008C41.2195 25.1711 38.1297 30.8828 32.9523 34.2805C32.0797 34.8523 31.8359 36.0258 32.4094 36.8977C32.9594 37.7344 34.1227 38.0352 35.0273 37.4406C41.2711 33.3422 45 26.4477 45 19C45 11.5523 41.2711 4.65859 35.0273 0.560152ZM37.5 19C37.5 14.0367 34.9953 9.47343 30.7992 6.79375C29.925 6.23593 28.7656 6.49531 28.2117 7.37656C27.6578 8.25781 27.9164 9.42421 28.7906 9.98281C31.8961 11.9664 33.75 15.3367 33.75 19C33.75 22.6633 31.8961 26.0336 28.7906 28.0172C27.9164 28.575 27.6578 29.7414 28.2117 30.6234C28.7203 31.4328 29.8617 31.8062 30.7992 31.2062C34.9953 28.5266 37.5 23.9641 37.5 19ZM26.4242 12.9945C25.5195 12.5 24.3781 12.8258 23.8766 13.7328C23.3773 14.6398 23.7078 15.7797 24.6148 16.2805C25.6234 16.8344 26.25 17.8773 26.25 19C26.25 20.1234 25.6234 21.1656 24.6156 21.7195C23.7086 22.2203 23.3781 23.3602 23.8773 24.2672C24.3797 25.1781 25.5219 25.5016 26.425 25.0055C28.6305 23.7906 30.0008 21.4898 30.0008 18.9992C30.0008 16.5086 28.6305 14.2086 26.4242 12.9945Z" fill="#EEEEEE"/>
</svg>
